<?xml version="1.0" standalone="no"?>
<!DOCTYPE svg PUBLIC "-//W3C//DTD SVG 20010904//EN"
 "http://www.w3.org/TR/2001/REC-SVG-20010904/DTD/svg10.dtd">
<svg version="1.0" xmlns="http://www.w3.org/2000/svg"
 width="1766.000000pt" height="1766.000000pt" viewBox="0 0 1766.000000 1766.000000"
 preserveAspectRatio="xMidYMid meet">
<metadata>
Created by potrace 1.14, written by Peter Selinger 2001-2017
</metadata>
<g transform="translate(0.000000,1766.000000) scale(0.100000,-0.100000)"
fill="#000000" stroke="none">
<path d="M8599 16946 c-2 -3 -62 -7 -134 -11 -71 -3 -141 -8 -155 -10 -14 -2
-59 -6 -100 -10 -109 -9 -138 -12 -231 -25 -46 -6 -100 -13 -119 -16 -31 -4
-73 -10 -185 -29 -111 -18 -210 -37 -216 -41 -4 -2 -29 -7 -55 -10 -27 -3 -51
-7 -55 -9 -3 -2 -19 -7 -35 -9 -32 -6 -40 -8 -134 -31 -35 -9 -71 -17 -80 -19
-26 -5 -73 -17 -144 -38 -38 -11 -76 -21 -85 -23 -29 -5 -195 -56 -216 -65
-11 -5 -31 -12 -45 -14 -24 -4 -139 -43 -260 -88 -74 -27 -210 -79 -235 -89
-11 -4 -49 -20 -85 -34 -36 -15 -83 -35 -105 -44 -22 -10 -56 -25 -75 -33
-110 -47 -207 -94 -390 -186 -113 -58 -207 -107 -210 -111 -3 -3 -30 -19 -60
-34 -30 -16 -77 -42 -105 -58 -27 -16 -65 -37 -82 -46 -18 -9 -33 -20 -33 -25
0 -4 -5 -8 -11 -8 -6 0 -31 -13 -56 -30 -24 -16 -48 -30 -54 -30 -5 0 -9 -4
-9 -9 0 -5 -8 -12 -18 -15 -23 -8 -188 -115 -247 -158 -5 -5 -79 -58 -164
-118 -84 -61 -159 -116 -167 -123 -32 -29 -44 -37 -53 -37 -5 0 -11 -4 -13 -8
-1 -4 -37 -35 -78 -67 -41 -33 -80 -64 -86 -70 -6 -5 -33 -28 -60 -50 -26 -22
-62 -52 -79 -67 -16 -15 -39 -35 -51 -45 -103 -88 -190 -169 -384 -363 -229
-228 -330 -336 -330 -351 0 -5 -7 -9 -15 -9 -8 0 -15 -6 -15 -14 0 -8 -4 -16
-9 -18 -5 -1 -51 -52 -101 -113 -51 -60 -97 -111 -101 -113 -5 -2 -9 -8 -9
-13 0 -5 -8 -17 -17 -27 -23 -24 -200 -254 -232 -301 -14 -20 -27 -38 -30 -41
-15 -12 -255 -363 -296 -432 -45 -75 -69 -114 -74 -118 -7 -5 -33 -50 -53 -90
-7 -14 -18 -31 -25 -38 -7 -7 -13 -19 -13 -26 0 -7 -8 -21 -17 -32 -10 -10
-26 -35 -35 -54 -10 -19 -32 -60 -49 -90 -42 -71 -265 -513 -309 -610 -77
-173 -110 -252 -110 -266 0 -7 -4 -14 -10 -14 -5 0 -10 -6 -10 -12 0 -7 -12
-40 -26 -73 -14 -33 -27 -64 -28 -70 -2 -5 -9 -24 -16 -42 -6 -18 -11 -35 -10
-39 1 -4 -2 -10 -7 -13 -5 -3 -14 -22 -20 -41 -22 -69 -131 -379 -136 -387 -3
-4 -8 -24 -13 -43 -9 -42 -9 -41 -16 -60 -13 -34 -55 -178 -59 -205 -1 -5 -10
-34 -20 -62 -10 -29 -16 -53 -14 -53 2 0 -5 -27 -15 -60 -10 -33 -16 -60 -14
-60 2 0 -1 -11 -6 -26 -8 -21 -53 -205 -66 -269 -2 -11 -6 -31 -9 -45 -3 -14
-7 -34 -9 -45 -2 -11 -14 -69 -26 -130 -12 -60 -23 -123 -26 -140 -2 -16 -6
-41 -9 -55 -3 -14 -7 -43 -11 -65 -3 -22 -12 -80 -19 -130 -8 -49 -17 -114
-20 -144 -4 -30 -8 -61 -10 -70 -3 -15 -14 -119 -20 -191 -2 -19 -6 -62 -9
-95 -3 -33 -8 -89 -10 -125 -3 -36 -8 -117 -13 -180 -15 -221 -7 -1016 11
-1156 3 -17 7 -73 11 -125 7 -102 10 -133 18 -194 4 -22 9 -65 12 -95 3 -30 7
-64 9 -75 2 -11 7 -46 11 -79 3 -32 8 -68 10 -80 2 -11 9 -55 15 -96 6 -41 14
-86 16 -100 3 -14 9 -50 14 -80 6 -30 12 -66 15 -80 8 -32 13 -58 19 -95 2
-16 14 -73 26 -125 12 -52 24 -108 27 -124 2 -16 25 -106 49 -200 24 -94 46
-178 48 -186 10 -38 38 -137 43 -150 8 -19 11 -29 17 -57 2 -12 10 -31 16 -42
6 -12 8 -21 6 -21 -3 0 22 -78 55 -172 33 -95 61 -180 63 -188 2 -8 10 -28 17
-45 6 -16 13 -34 14 -40 4 -15 110 -285 132 -335 11 -25 33 -76 48 -115 16
-38 35 -78 43 -87 8 -10 12 -18 8 -18 -4 0 -1 -10 6 -22 7 -13 11 -26 10 -30
-1 -5 3 -8 8 -8 6 0 10 -5 10 -12 0 -6 25 -63 55 -125 30 -63 55 -118 55 -122
0 -5 7 -14 15 -21 8 -7 15 -19 15 -27 0 -8 9 -28 21 -44 11 -16 17 -29 13 -29
-3 0 -2 -6 4 -13 14 -17 90 -154 105 -190 6 -15 15 -27 19 -27 4 0 8 -4 8 -10
0 -5 20 -44 45 -86 25 -41 45 -77 45 -79 0 -2 27 -47 60 -100 33 -53 60 -98
60 -101 0 -3 5 -10 10 -17 6 -7 47 -68 92 -137 45 -69 86 -126 90 -128 4 -2 8
-7 8 -12 0 -5 28 -47 62 -95 35 -47 68 -94 73 -103 6 -9 12 -19 15 -22 3 -3
25 -32 50 -65 25 -33 48 -62 53 -63 4 -2 5 -8 1 -13 -3 -5 -1 -9 3 -9 5 0 27
-24 48 -52 22 -29 46 -59 53 -66 7 -8 25 -30 40 -50 15 -21 32 -42 37 -48 6
-6 28 -33 50 -59 104 -124 154 -181 207 -236 31 -32 55 -59 54 -59 -3 0 56
-63 171 -182 36 -38 69 -68 73 -68 5 0 12 -9 15 -20 3 -11 9 -20 13 -20 4 0
46 -37 93 -82 77 -75 194 -182 259 -238 14 -12 39 -34 55 -48 17 -15 57 -49
90 -77 33 -27 65 -54 72 -60 6 -5 26 -21 44 -35 32 -25 145 -112 164 -128 6
-4 26 -19 45 -32 19 -14 43 -33 54 -43 11 -9 58 -43 103 -74 46 -31 88 -62 94
-70 6 -7 17 -13 24 -13 6 0 20 -9 30 -20 10 -11 24 -20 32 -20 7 0 16 -7 19
-15 4 -8 12 -15 19 -15 7 0 18 -6 24 -13 6 -8 31 -24 56 -37 25 -13 45 -27 45
-32 0 -4 4 -8 9 -8 5 0 51 -26 102 -59 52 -32 111 -68 131 -80 21 -11 55 -31
75 -42 21 -12 63 -36 93 -52 30 -17 58 -35 62 -41 4 -6 8 -8 8 -3 0 4 24 -6
53 -23 70 -41 517 -260 530 -260 3 0 29 -11 58 -24 30 -13 56 -23 59 -23 3 1
19 -6 35 -15 45 -24 183 -78 199 -78 8 0 16 -3 18 -7 2 -5 37 -19 78 -32 41
-14 82 -28 90 -32 35 -17 100 -38 100 -33 0 4 6 2 13 -4 12 -10 291 -98 372
-118 6 -2 55 -15 110 -29 55 -15 107 -29 115 -31 8 -2 43 -10 77 -18 34 -9 77
-18 94 -21 18 -3 35 -7 38 -9 3 -2 24 -7 46 -10 22 -4 56 -11 75 -16 19 -5 58
-12 85 -16 28 -3 53 -8 58 -11 9 -5 16 -6 157 -28 58 -9 116 -19 130 -22 41
-10 2061 -13 2105 -3 22 5 67 12 100 15 33 4 62 9 65 10 3 2 26 6 50 9 25 4
59 9 75 13 17 3 39 7 50 9 11 1 54 10 95 19 41 9 88 18 104 20 15 2 38 8 50
12 11 4 26 7 31 8 12 1 59 11 145 32 36 8 70 16 75 18 6 1 17 4 25 8 8 3 38
10 65 17 74 18 201 55 375 111 518 165 1073 415 1546 695 70 41 128 74 130 74
3 0 10 5 17 10 7 6 35 25 62 42 28 17 94 61 148 97 54 36 105 71 115 76 9 6
36 24 58 40 23 17 52 37 64 45 12 8 37 26 55 40 18 14 43 32 56 40 12 8 31 23
41 32 10 10 21 18 24 18 6 0 93 68 109 85 6 6 31 26 58 45 26 18 47 37 47 41
0 4 8 10 18 13 9 4 39 26 65 51 26 25 50 45 53 45 3 0 15 10 28 22 13 13 49
46 81 73 90 77 182 163 336 312 58 55 283 290 340 354 64 71 130 147 148 169
18 22 34 40 96 113 6 7 32 39 58 72 26 33 58 72 72 87 14 15 25 31 25 37 0 5
6 14 13 18 7 4 23 25 37 45 14 21 29 38 33 38 5 0 5 4 2 10 -3 5 -2 10 2 10 5
0 29 28 53 63 24 34 48 67 52 72 40 51 78 107 78 114 0 5 3 11 8 13 10 5 52
66 52 77 0 5 4 11 8 13 10 4 72 96 72 108 0 4 4 10 8 12 5 1 44 62 88 133 125
202 160 262 248 425 91 168 116 217 137 260 111 230 149 310 161 340 9 19 27
61 42 93 14 32 26 60 26 64 0 3 9 24 19 47 17 36 31 70 36 86 1 3 9 22 18 44
9 21 17 40 17 42 0 1 5 15 12 31 26 65 163 442 172 478 2 6 6 24 11 40 4 17
10 35 14 40 3 6 6 15 7 20 1 6 23 82 49 169 26 88 48 167 50 175 2 9 8 36 15
61 7 25 14 53 16 62 5 22 12 52 19 75 8 33 27 108 31 128 2 11 6 29 8 40 3 11
19 88 35 170 l31 150 -1 1650 c0 1396 -2 1659 -14 1710 -8 33 -17 76 -20 95
-3 19 -7 42 -10 50 -2 8 -6 26 -9 40 -2 14 -10 48 -16 75 -6 28 -14 59 -16 70
-2 11 -26 106 -54 210 -28 105 -52 199 -55 210 -5 20 -73 248 -82 275 -3 8
-25 74 -49 145 -24 72 -48 139 -53 150 -5 11 -18 46 -30 78 -42 116 -66 175
-132 332 -110 264 -273 604 -387 810 -22 39 -54 97 -72 130 -18 33 -55 95 -82
138 -26 43 -48 81 -48 83 0 3 -8 17 -18 32 -11 15 -30 45 -44 67 -110 173
-253 385 -328 485 -10 14 -42 57 -70 95 -86 118 -158 207 -172 213 -5 2 -8 8
-8 13 0 9 -27 44 -62 81 -10 10 -16 18 -13 18 2 0 -8 13 -23 29 -15 15 -47 52
-72 82 -25 30 -62 72 -82 94 -20 22 -56 63 -80 90 -61 72 -468 477 -563 561
-125 111 -293 255 -340 291 -5 5 -30 24 -55 43 -25 19 -51 39 -58 45 -7 5 -24
20 -37 33 -13 12 -27 22 -31 22 -3 0 -28 18 -54 40 -26 22 -53 40 -59 40 -6 0
-11 3 -11 8 -1 4 -29 26 -63 50 -34 24 -97 68 -140 98 -42 29 -82 54 -87 54
-6 0 -10 4 -10 9 0 5 -8 12 -18 15 -10 4 -27 14 -38 24 -10 9 -30 23 -44 29
-30 15 -63 36 -70 44 -3 3 -39 25 -80 50 -41 24 -76 47 -78 51 -2 5 -7 8 -12
8 -5 0 -47 22 -94 49 -109 63 -208 117 -316 172 -47 24 -88 48 -91 52 -3 5
-10 9 -15 9 -9 0 -66 26 -219 99 -38 18 -72 34 -75 34 -3 0 -27 11 -55 24
-105 48 -484 196 -540 211 -5 2 -38 13 -72 26 -34 13 -72 26 -85 28 -13 3 -43
13 -68 22 -25 9 -52 17 -60 19 -8 2 -44 13 -80 24 -62 19 -241 68 -278 76 -9
2 -42 10 -72 18 -30 8 -82 21 -115 28 -33 7 -64 14 -70 15 -12 3 -196 40 -240
48 -35 7 -192 33 -250 41 -22 4 -51 8 -65 10 -23 4 -56 8 -150 20 -19 3 -60 7
-90 10 -30 3 -75 8 -100 11 -25 2 -78 7 -119 10 -41 3 -97 8 -125 10 -65 6
-802 14 -807 10z"/>
</g>
</svg>
